<?xml version="1.0" encoding="UTF-8" standalone="no"?>
<svg width="1200" height="800" viewBox="0 0 1200 800" xmlns="http://www.w3.org/2000/svg">
  <!-- Header -->
  <rect x="0" y="0" width="1200" height="60" fill="#1e293b"/>
  <text x="30" y="38" fill="white" font-family="Arial" font-size="24">Resource Planning</text>
  
  <!-- Team Overview -->
  <g transform="translate(30, 90)">
    <rect width="270" height="150" rx="8" fill="#ffffff" stroke="#e2e8f0"/>
    <text x="20" y="35" fill="#1e293b" font-family="Arial" font-size="16">Total Agents</text>
    <text x="20" y="80" fill="#3b82f6" font-family="Arial" font-size="36" font-weight="bold">48</text>
    <text x="20" y="120" fill="#10b981" font-family="Arial" font-size="14">↑ 4 new this month</text>
  </g>
  
  <g transform="translate(320, 90)">
    <rect width="270" height="150" rx="8" fill="#ffffff" stroke="#e2e8f0"/>
    <text x="20" y="35" fill="#1e293b" font-family="Arial" font-size="16">Active Now</text>
    <text x="20" y="80" fill="#10b981" font-family="Arial" font-size="36" font-weight="bold">32</text>
    <text x="20" y="120" fill="#10b981" font-family="Arial" font-size="14">66% of total capacity</text>
  </g>
  
  <g transform="translate(610, 90)">
    <rect width="270" height="150" rx="8" fill="#ffffff" stroke="#e2e8f0"/>
    <text x="20" y="35" fill="#1e293b" font-family="Arial" font-size="16">Avg. Utilization</text>
    <text x="20" y="80" fill="#6366f1" font-family="Arial" font-size="36" font-weight="bold">85%</text>
    <text x="20" y="120" fill="#10b981" font-family="Arial" font-size="14">↑ 5% from last week</text>
  </g>
  
  <g transform="translate(900, 90)">
    <rect width="270" height="150" rx="8" fill="#ffffff" stroke="#e2e8f0"/>
    <text x="20" y="35" fill="#1e293b" font-family="Arial" font-size="16">Scheduled Breaks</text>
    <text x="20" y="80" fill="#f59e0b" font-family="Arial" font-size="36" font-weight="bold">8</text>
    <text x="20" y="120" fill="#64748b" font-family="Arial" font-size="14">Next in 45 minutes</text>
  </g>
  
  <!-- Schedule Grid -->
  <g transform="translate(30, 270)">
    <rect width="1140" height="500" rx="8" fill="#ffffff" stroke="#e2e8f0"/>
    <text x="20" y="35" fill="#1e293b" font-family="Arial" font-size="18" font-weight="bold">Team Schedule</text>
    
    <!-- Time Headers -->
    <g transform="translate(150, 60)">
      <text x="0" y="0" fill="#64748b" font-family="Arial" font-size="12">9:00</text>
      <text x="100" y="0" fill="#64748b" font-family="Arial" font-size="12">10:00</text>
      <text x="200" y="0" fill="#64748b" font-family="Arial" font-size="12">11:00</text>
      <text x="300" y="0" fill="#64748b" font-family="Arial" font-size="12">12:00</text>
      <text x="400" y="0" fill="#64748b" font-family="Arial" font-size="12">13:00</text>
      <text x="500" y="0" fill="#64748b" font-family="Arial" font-size="12">14:00</text>
      <text x="600" y="0" fill="#64748b" font-family="Arial" font-size="12">15:00</text>
      <text x="700" y="0" fill="#64748b" font-family="Arial" font-size="12">16:00</text>
      <text x="800" y="0" fill="#64748b" font-family="Arial" font-size="12">17:00</text>
    </g>
    
    <!-- Team Members -->
    <g transform="translate(20, 100)">
      <!-- Team Member 1 -->
      <text x="0" y="0" fill="#1e293b" font-family="Arial" font-size="14">John D.</text>
      <rect x="150" y="-15" width="200" height="30" rx="4" fill="#dbeafe"/>
      <text x="170" y="5" fill="#1e293b" font-family="Arial" font-size="12">Customer Support</text>
      <rect x="360" y="-15" width="100" height="30" rx="4" fill="#fee2e2"/>
      <text x="380" y="5" fill="#1e293b" font-family="Arial" font-size="12">Break</text>
      <rect x="470" y="-15" width="300" height="30" rx="4" fill="#dbeafe"/>
      <text x="490" y="5" fill="#1e293b" font-family="Arial" font-size="12">Customer Support</text>
      
      <!-- Team Member 2 -->
      <text x="0" y="40" fill="#1e293b" font-family="Arial" font-size="14">Sarah M.</text>
      <rect x="150" y="25" width="300" height="30" rx="4" fill="#dcfce7"/>
      <text x="170" y="45" fill="#1e293b" font-family="Arial" font-size="12">Technical Support</text>
      <rect x="460" y="25" width="100" height="30" rx="4" fill="#fee2e2"/>
      <text x="480" y="45" fill="#1e293b" font-family="Arial" font-size="12">Break</text>
      <rect x="570" y="25" width="200" height="30" rx="4" fill="#dcfce7"/>
      <text x="590" y="45" fill="#1e293b" font-family="Arial" font-size="12">Technical Support</text>
      
      <!-- More Team Members -->
      <g transform="translate(0, 80)">
        <text x="0" y="0" fill="#1e293b" font-family="Arial" font-size="14">Mike R.</text>
        <rect x="150" y="-15" width="250" height="30" rx="4" fill="#f3e8ff"/>
        <text x="170" y="5" fill="#1e293b" font-family="Arial" font-size="12">Sales Support</text>
        <rect x="410" y="-15" width="100" height="30" rx="4" fill="#fee2e2"/>
        <text x="430" y="5" fill="#1e293b" font-family="Arial" font-size="12">Break</text>
        <rect x="520" y="-15" width="250" height="30" rx="4" fill="#f3e8ff"/>
        <text x="540" y="5" fill="#1e293b" font-family="Arial" font-size="12">Sales Support</text>
      </g>
    </g>
    
    <!-- Time Indicator -->
    <line x1="350" y1="60" x2="350" y2="450" stroke="#dc2626" stroke-width="2" stroke-dasharray="4"/>
    <circle cx="350" cy="55" r="4" fill="#dc2626"/>
  </g>
</svg>
