<?xml version="1.0" encoding="UTF-8" standalone="no"?>
<svg width="1200" height="800" viewBox="0 0 1200 800" xmlns="http://www.w3.org/2000/svg">
  <!-- Analytics Header -->
  <rect x="0" y="0" width="1200" height="60" fill="#1e293b"/>
  <text x="30" y="38" fill="white" font-family="Arial" font-size="24">Analytics Dashboard</text>
  
  <!-- KPI Cards -->
  <g transform="translate(30, 90)">
    <rect width="270" height="150" rx="8" fill="#ffffff" stroke="#e2e8f0"/>
    <text x="20" y="35" fill="#1e293b" font-family="Arial" font-size="16">Total Interactions</text>
    <text x="20" y="80" fill="#3b82f6" font-family="Arial" font-size="36" font-weight="bold">45.2K</text>
    <text x="20" y="120" fill="#10b981" font-family="Arial" font-size="14">↑ 12% from last month</text>
  </g>
  
  <g transform="translate(320, 90)">
    <rect width="270" height="150" rx="8" fill="#ffffff" stroke="#e2e8f0"/>
    <text x="20" y="35" fill="#1e293b" font-family="Arial" font-size="16">Avg. Handle Time</text>
    <text x="20" y="80" fill="#10b981" font-family="Arial" font-size="36" font-weight="bold">4m 30s</text>
    <text x="20" y="120" fill="#10b981" font-family="Arial" font-size="14">↓ 8% improvement</text>
  </g>
  
  <g transform="translate(610, 90)">
    <rect width="270" height="150" rx="8" fill="#ffffff" stroke="#e2e8f0"/>
    <text x="20" y="35" fill="#1e293b" font-family="Arial" font-size="16">First Response Time</text>
    <text x="20" y="80" fill="#6366f1" font-family="Arial" font-size="36" font-weight="bold">45s</text>
    <text x="20" y="120" fill="#10b981" font-family="Arial" font-size="14">↑ 15% faster</text>
  </g>
  
  <g transform="translate(900, 90)">
    <rect width="270" height="150" rx="8" fill="#ffffff" stroke="#e2e8f0"/>
    <text x="20" y="35" fill="#1e293b" font-family="Arial" font-size="16">Customer Satisfaction</text>
    <text x="20" y="80" fill="#f59e0b" font-family="Arial" font-size="36" font-weight="bold">96%</text>
    <text x="20" y="120" fill="#10b981" font-family="Arial" font-size="14">↑ 3% increase</text>
  </g>
  
  <!-- Detailed Charts -->
  <g transform="translate(30, 270)">
    <!-- Interaction Trends -->
    <rect width="740" height="250" rx="8" fill="#ffffff" stroke="#e2e8f0"/>
    <text x="20" y="35" fill="#1e293b" font-family="Arial" font-size="18" font-weight="bold">Interaction Trends</text>
    
    <!-- Chart Lines -->
    <path d="M 40 180 L 700 180" stroke="#e2e8f0" stroke-width="1"/>
    <path d="M 40 120 L 700 120" stroke="#e2e8f0" stroke-width="1"/>
    <path d="M 40 60 L 700 60" stroke="#e2e8f0" stroke-width="1"/>
    
    <!-- Data Line -->
    <path d="M 40 150 Q 180 50, 320 180 T 600 100" stroke="#3b82f6" fill="none" stroke-width="3"/>
    <path d="M 40 180 Q 180 120, 320 200 T 600 150" stroke="#10b981" fill="none" stroke-width="3"/>
  </g>
  
  <g transform="translate(800, 270)">
    <!-- Channel Distribution -->
    <rect width="370" height="250" rx="8" fill="#ffffff" stroke="#e2e8f0"/>
    <text x="20" y="35" fill="#1e293b" font-family="Arial" font-size="18" font-weight="bold">Channel Distribution</text>
    
    <!-- Donut Chart -->
    <circle cx="185" cy="140" r="80" fill="none" stroke="#3b82f6" stroke-width="30"/>
    <circle cx="185" cy="140" r="80" fill="none" stroke="#10b981" stroke-width="30" stroke-dasharray="188.5 377"/>
    <circle cx="185" cy="140" r="80" fill="none" stroke="#6366f1" stroke-width="30" stroke-dasharray="94.25 377"/>
  </g>
  
  <!-- Bottom Section -->
  <g transform="translate(30, 550)">
    <!-- Detailed Metrics -->
    <rect width="1140" height="220" rx="8" fill="#ffffff" stroke="#e2e8f0"/>
    <text x="20" y="35" fill="#1e293b" font-family="Arial" font-size="18" font-weight="bold">Performance Metrics</text>
    
    <!-- Metric Rows -->
    <g transform="translate(20, 60)">
      <text x="0" y="0" fill="#64748b" font-family="Arial" font-size="14">Response Time</text>
      <rect x="200" width="300" height="8" rx="4" fill="#e2e8f0"/>
      <rect x="200" width="240" height="8" rx="4" fill="#3b82f6"/>
    </g>
    
    <g transform="translate(20, 100)">
      <text x="0" y="0" fill="#64748b" font-family="Arial" font-size="14">Resolution Rate</text>
      <rect x="200" width="300" height="8" rx="4" fill="#e2e8f0"/>
      <rect x="200" width="270" height="8" rx="4" fill="#10b981"/>
    </g>
    
    <g transform="translate(20, 140)">
      <text x="0" y="0" fill="#64748b" font-family="Arial" font-size="14">Customer Satisfaction</text>
      <rect x="200" width="300" height="8" rx="4" fill="#e2e8f0"/>
      <rect x="200" width="285" height="8" rx="4" fill="#6366f1"/>
    </g>
    
    <g transform="translate(20, 180)">
      <text x="0" y="0" fill="#64748b" font-family="Arial" font-size="14">Agent Efficiency</text>
      <rect x="200" width="300" height="8" rx="4" fill="#e2e8f0"/>
      <rect x="200" width="255" height="8" rx="4" fill="#f59e0b"/>
    </g>
  </g>
</svg>
