<svg xmlns="http://www.w3.org/2000/svg" xmlns:xlink="http://www.w3.org/1999/xlink" width="500" zoomAndPan="magnify" viewBox="0 0 375 374.999991" height="500" preserveAspectRatio="xMidYMid meet" version="1.0"><defs><g/><clipPath id="bb194820ca"><path d="M 17.296875 131.183594 L 57.710938 131.183594 L 57.710938 243.746094 L 17.296875 243.746094 Z M 17.296875 131.183594 " clip-rule="nonzero"/></clipPath><clipPath id="7cbae3f506"><path d="M 57.710938 215.621094 L 57.710938 159.371094 L 17.296875 131.246094 L 17.296875 243.746094 Z M 57.710938 215.621094 " clip-rule="nonzero"/></clipPath></defs><g fill="#ffffff" fill-opacity="1"><g transform="translate(27.351565, 206.343752)"><g><path d="M 13.375 0.515625 C 10.3125 0.515625 8.03125 -0.289062 6.53125 -1.90625 C 5.039062 -3.53125 4.296875 -5.90625 4.296875 -9.03125 L 4.296875 -27.0625 L 8.296875 -27.0625 L 8.296875 -9.125 C 8.296875 -5.019531 10.222656 -2.96875 14.078125 -2.96875 C 16.535156 -2.96875 18.472656 -3.769531 19.890625 -5.375 C 21.316406 -6.976562 22.03125 -9.578125 22.03125 -13.171875 L 22.03125 -27.0625 L 26.03125 -27.0625 L 26.03125 0 L 22.25 0 L 22.25 -4.25 L 21.734375 -4.375 C 20.804688 -2.71875 19.691406 -1.488281 18.390625 -0.6875 C 17.085938 0.113281 15.414062 0.515625 13.375 0.515625 Z M 13.375 0.515625 "/></g></g></g><g fill="#ffffff" fill-opacity="1"><g transform="translate(58.088173, 206.343752)"><g><path d="M 4.71875 0 L 4.71875 -27.0625 L 8.515625 -27.0625 L 8.515625 -22.8125 L 9.03125 -22.703125 C 9.925781 -24.285156 11.070312 -25.492188 12.46875 -26.328125 C 13.875 -27.160156 15.582031 -27.578125 17.59375 -27.578125 C 20.84375 -27.578125 23.195312 -26.742188 24.65625 -25.078125 C 26.125 -23.421875 26.859375 -20.867188 26.859375 -17.421875 L 26.859375 0 L 22.875 0 L 22.875 -17.328125 C 22.875 -18.960938 22.660156 -20.273438 22.234375 -21.265625 C 21.816406 -22.253906 21.171875 -22.972656 20.296875 -23.421875 C 19.421875 -23.867188 18.273438 -24.09375 16.859375 -24.09375 C 14.421875 -24.09375 12.453125 -23.285156 10.953125 -21.671875 C 9.453125 -20.066406 8.703125 -17.472656 8.703125 -13.890625 L 8.703125 0 Z M 4.71875 0 "/></g></g></g><g fill="#ffffff" fill-opacity="1"><g transform="translate(89.241793, 206.343752)"><g><path d="M 6.71875 -32.296875 C 5.875 -32.296875 5.1875 -32.5625 4.65625 -33.09375 C 4.125 -33.625 3.859375 -34.296875 3.859375 -35.109375 C 3.859375 -35.929688 4.125 -36.609375 4.65625 -37.140625 C 5.1875 -37.671875 5.875 -37.9375 6.71875 -37.9375 C 7.570312 -37.9375 8.265625 -37.671875 8.796875 -37.140625 C 9.328125 -36.609375 9.59375 -35.929688 9.59375 -35.109375 C 9.59375 -34.296875 9.328125 -33.625 8.796875 -33.09375 C 8.265625 -32.5625 7.570312 -32.296875 6.71875 -32.296875 Z M 4.71875 0 L 4.71875 -27.0625 L 8.703125 -27.0625 L 8.703125 0 Z M 4.71875 0 "/></g></g></g><g fill="#ffffff" fill-opacity="1"><g transform="translate(102.659933, 206.343752)"><g><path d="M 6.03125 0 L 6.03125 -23.796875 L 1.328125 -23.796875 L 1.328125 -27.09375 L 6.03125 -27.09375 C 5.738281 -28.269531 5.59375 -29.390625 5.59375 -30.453125 C 5.59375 -32.203125 5.960938 -33.675781 6.703125 -34.875 C 7.453125 -36.082031 8.488281 -36.976562 9.8125 -37.5625 C 11.132812 -38.15625 12.664062 -38.453125 14.40625 -38.453125 C 17.101562 -38.453125 19.171875 -37.867188 20.609375 -36.703125 L 19.0625 -33.890625 L 18.546875 -33.78125 C 17.484375 -34.632812 16.101562 -35.0625 14.40625 -35.0625 C 12.8125 -35.0625 11.609375 -34.648438 10.796875 -33.828125 C 9.992188 -33.015625 9.59375 -31.851562 9.59375 -30.34375 C 9.59375 -29.414062 9.738281 -28.332031 10.03125 -27.09375 L 18.640625 -27.09375 L 18.640625 -23.796875 L 10.03125 -23.796875 L 10.03125 0 Z M 6.03125 0 "/></g></g></g><g fill="#ffffff" fill-opacity="1"><g transform="translate(121.940834, 206.343752)"><g><path d="M 5.421875 11.484375 C 4.503906 11.484375 3.648438 11.40625 2.859375 11.25 C 2.066406 11.09375 1.382812 10.875 0.8125 10.59375 L 1.546875 7.4375 L 1.984375 7.28125 C 2.378906 7.476562 2.867188 7.644531 3.453125 7.78125 C 4.046875 7.925781 4.65625 8 5.28125 8 C 6.375 8 7.28125 7.847656 8 7.546875 C 8.71875 7.253906 9.332031 6.769531 9.84375 6.09375 C 10.363281 5.414062 10.84375 4.476562 11.28125 3.28125 L 12.25 0.640625 L 1.375 -27.0625 L 5.6875 -27.0625 L 14.203125 -4.984375 L 14.671875 -4.984375 L 22.921875 -27.0625 L 27.015625 -27.0625 L 14.921875 4.25 C 14.234375 5.976562 13.460938 7.367188 12.609375 8.421875 C 11.753906 9.484375 10.75 10.257812 9.59375 10.75 C 8.4375 11.238281 7.046875 11.484375 5.421875 11.484375 Z M 5.421875 11.484375 "/></g></g></g><g fill="#ffffff" fill-opacity="1"><g transform="translate(150.469705, 206.343752)"><g><path d="M 4.71875 0 L 4.71875 -27.0625 L 8.515625 -27.0625 L 8.515625 -22.8125 L 9.03125 -22.703125 C 9.925781 -24.285156 11.070312 -25.492188 12.46875 -26.328125 C 13.875 -27.160156 15.582031 -27.578125 17.59375 -27.578125 C 20.84375 -27.578125 23.195312 -26.742188 24.65625 -25.078125 C 26.125 -23.421875 26.859375 -20.867188 26.859375 -17.421875 L 26.859375 0 L 22.875 0 L 22.875 -17.328125 C 22.875 -18.960938 22.660156 -20.273438 22.234375 -21.265625 C 21.816406 -22.253906 21.171875 -22.972656 20.296875 -23.421875 C 19.421875 -23.867188 18.273438 -24.09375 16.859375 -24.09375 C 14.421875 -24.09375 12.453125 -23.285156 10.953125 -21.671875 C 9.453125 -20.066406 8.703125 -17.472656 8.703125 -13.890625 L 8.703125 0 Z M 4.71875 0 "/></g></g></g><g fill="#ffffff" fill-opacity="1"><g transform="translate(181.623325, 206.343752)"><g><path d="M 25.78125 -12.609375 L 7.1875 -12.609375 C 7.300781 -9.328125 8.085938 -6.914062 9.546875 -5.375 C 11.015625 -3.832031 13.023438 -3.0625 15.578125 -3.0625 C 17.503906 -3.0625 19.054688 -3.40625 20.234375 -4.09375 C 21.421875 -4.78125 22.347656 -5.863281 23.015625 -7.34375 L 23.53125 -7.34375 L 26.125 -5.796875 C 25.34375 -3.828125 24.085938 -2.28125 22.359375 -1.15625 C 20.640625 -0.0390625 18.378906 0.515625 15.578125 0.515625 C 12.960938 0.515625 10.710938 0 8.828125 -1.03125 C 6.953125 -2.0625 5.503906 -3.625 4.484375 -5.71875 C 3.472656 -7.8125 2.96875 -10.410156 2.96875 -13.515625 C 2.96875 -16.585938 3.503906 -19.179688 4.578125 -21.296875 C 5.648438 -23.410156 7.113281 -24.984375 8.96875 -26.015625 C 10.820312 -27.054688 12.941406 -27.578125 15.328125 -27.578125 C 18.796875 -27.578125 21.503906 -26.597656 23.453125 -24.640625 C 25.398438 -22.691406 26.382812 -19.796875 26.40625 -15.953125 C 26.40625 -14.441406 26.367188 -13.425781 26.296875 -12.90625 Z M 22.453125 -15.953125 C 22.390625 -18.828125 21.75 -20.914062 20.53125 -22.21875 C 19.320312 -23.53125 17.585938 -24.1875 15.328125 -24.1875 C 12.960938 -24.1875 11.101562 -23.53125 9.75 -22.21875 C 8.40625 -20.90625 7.582031 -18.816406 7.28125 -15.953125 Z M 22.453125 -15.953125 "/></g></g></g><g fill="#ffffff" fill-opacity="1"><g transform="translate(210.471086, 206.343752)"><g><path d="M 18.296875 -4.296875 L 19.578125 -1.421875 C 18.941406 -0.785156 18.101562 -0.304688 17.0625 0.015625 C 16.019531 0.347656 14.894531 0.515625 13.6875 0.515625 C 8.519531 0.515625 5.9375 -2.101562 5.9375 -7.34375 L 5.9375 -23.796875 L 1.234375 -23.796875 L 1.234375 -27.09375 L 5.9375 -27.09375 L 5.9375 -32.8125 L 9.9375 -33.46875 L 9.9375 -27.09375 L 18.640625 -27.09375 L 18.640625 -23.796875 L 9.9375 -23.796875 L 9.9375 -7.734375 C 9.9375 -4.617188 11.285156 -3.0625 13.984375 -3.0625 C 15.453125 -3.0625 16.71875 -3.472656 17.78125 -4.296875 Z M 18.296875 -4.296875 "/></g></g></g><g fill="#ffffff" fill-opacity="1"><g transform="translate(231.076618, 206.343752)"><g><path d="M 13.421875 0 L 8.359375 0 L 1.734375 -27.0625 L 5.6875 -27.0625 L 10.828125 -4.65625 L 11.328125 -4.65625 L 17.640625 -27.0625 L 21.84375 -27.0625 L 28.34375 -4.65625 L 28.859375 -4.65625 L 33.890625 -27.0625 L 37.71875 -27.0625 L 31.15625 0 L 26.078125 0 L 19.90625 -21 L 19.390625 -21 Z M 13.421875 0 "/></g></g></g><g fill="#ffffff" fill-opacity="1"><g transform="translate(270.521516, 206.343752)"><g><path d="M 15.53125 0.515625 C 12.976562 0.515625 10.753906 -0.0195312 8.859375 -1.09375 C 6.972656 -2.175781 5.519531 -3.769531 4.5 -5.875 C 3.476562 -7.976562 2.96875 -10.523438 2.96875 -13.515625 C 2.96875 -16.515625 3.476562 -19.066406 4.5 -21.171875 C 5.519531 -23.285156 6.972656 -24.878906 8.859375 -25.953125 C 10.753906 -27.035156 12.976562 -27.578125 15.53125 -27.578125 C 18.082031 -27.578125 20.300781 -27.035156 22.1875 -25.953125 C 24.082031 -24.878906 25.539062 -23.285156 26.5625 -21.171875 C 27.582031 -19.066406 28.09375 -16.515625 28.09375 -13.515625 C 28.09375 -10.523438 27.582031 -7.976562 26.5625 -5.875 C 25.539062 -3.769531 24.082031 -2.175781 22.1875 -1.09375 C 20.300781 -0.0195312 18.082031 0.515625 15.53125 0.515625 Z M 15.53125 -3.0625 C 18.226562 -3.0625 20.289062 -3.910156 21.71875 -5.609375 C 23.15625 -7.316406 23.875 -9.953125 23.875 -13.515625 C 23.875 -17.097656 23.15625 -19.738281 21.71875 -21.4375 C 20.289062 -23.144531 18.226562 -24 15.53125 -24 C 12.832031 -24 10.765625 -23.144531 9.328125 -21.4375 C 7.890625 -19.726562 7.171875 -17.085938 7.171875 -13.515625 C 7.171875 -9.953125 7.890625 -7.316406 9.328125 -5.609375 C 10.765625 -3.910156 12.832031 -3.0625 15.53125 -3.0625 Z M 15.53125 -3.0625 "/></g></g></g><g fill="#ffffff" fill-opacity="1"><g transform="translate(301.577026, 206.343752)"><g><path d="M 4.71875 0 L 4.71875 -27.0625 L 8.515625 -27.0625 L 8.515625 -22.8125 L 9.03125 -22.703125 C 10.289062 -25.773438 12.660156 -27.3125 16.140625 -27.3125 C 17.992188 -27.3125 19.378906 -26.972656 20.296875 -26.296875 L 19.265625 -22.921875 L 18.765625 -22.8125 C 17.753906 -23.320312 16.644531 -23.578125 15.4375 -23.578125 C 13.269531 -23.578125 11.601562 -22.765625 10.4375 -21.140625 C 9.28125 -19.523438 8.703125 -16.90625 8.703125 -13.28125 L 8.703125 0 Z M 4.71875 0 "/></g></g></g><g fill="#ffffff" fill-opacity="1"><g transform="translate(322.476935, 206.343752)"><g><path d="M 4.71875 0 L 4.71875 -37.9375 L 8.703125 -37.9375 L 8.703125 -15.78125 L 9.375 -15.78125 L 19.4375 -27.0625 L 23.625 -27.0625 L 23.625 -26.5 L 12.90625 -14.359375 L 24.65625 -0.609375 L 24.65625 0 L 20.1875 0 L 9.375 -12.515625 L 8.703125 -12.515625 L 8.703125 0 Z M 4.71875 0 "/></g></g></g><g clip-path="url(#bb194820ca)"><g clip-path="url(#7cbae3f506)"><path fill="#ffffff" d="M 17.296875 243.746094 L 17.296875 131.183594 L 57.710938 131.183594 L 57.710938 243.746094 Z M 17.296875 243.746094 " fill-opacity="1" fill-rule="nonzero"/></g></g><g fill="#000000" fill-opacity="1"><g transform="translate(21.944393, 204.770759)"><g><path d="M 1.65625 -28.5 L 8.828125 -28.5 L 8.828125 -14.171875 C 8.828125 -13.617188 8.914062 -12.992188 9.09375 -12.296875 C 9.3125 -11.453125 9.644531 -10.679688 10.09375 -9.984375 C 11.300781 -8.140625 13.03125 -7.21875 15.28125 -7.21875 C 17.738281 -7.21875 19.519531 -8.15625 20.625 -10.03125 C 21.03125 -10.695312 21.320312 -11.46875 21.5 -12.34375 C 21.644531 -12.96875 21.71875 -13.59375 21.71875 -14.21875 L 21.71875 -28.5 L 29.4375 -28.5 L 29.4375 0 L 21.71875 0 L 21.71875 -2.984375 C 19.925781 -0.992188 17.613281 0 14.78125 0 C 11.132812 0.0390625 8.046875 -1.265625 5.515625 -3.921875 C 2.941406 -6.523438 1.65625 -9.757812 1.65625 -13.625 Z M 1.65625 -28.5 "/></g></g></g></svg>